<svg xmlns="http://www.w3.org/2000/svg" viewBox="0 0 24 24" fill="none" stroke="currentColor" stroke-width="1.5" stroke-linecap="round" stroke-linejoin="round">
  <!-- Leaf icon that adapts to theme -->
  <!-- Main leaf shape -->
  <path d="M6 9C6 9 8 7 12 7C16 7 18 9 18 9C18 9 16 11 12 11C8 11 6 9 6 9Z" fill="currentColor" opacity="0.8"/>
  <path d="M6 9C6 9 8 11 12 11C16 11 18 9 18 9C18 9 16 7 12 7C8 7 6 9 6 9Z" fill="currentColor" opacity="0.6"/>
  
  <!-- Leaf stem -->
  <path d="M12 11L12 20" stroke="currentColor" stroke-width="1.5"/>
  
  <!-- Leaf veins -->
  <path d="M9 8L15 8" stroke="currentColor" stroke-width="0.5" opacity="0.7"/>
  <path d="M9 10L15 10" stroke="currentColor" stroke-width="0.5" opacity="0.7"/>
  
  <!-- Leaf tip -->
  <path d="M12 6L12 7" stroke="currentColor" stroke-width="1"/>
</svg>
